<?xml version="1.0" encoding="UTF-8" standalone="no"?>
<svg
   xmlns:dc="http://purl.org/dc/elements/1.1/"
   xmlns:cc="http://creativecommons.org/ns#"
   xmlns:rdf="http://www.w3.org/1999/02/22-rdf-syntax-ns#"
   xmlns:svg="http://www.w3.org/2000/svg"
   xmlns="http://www.w3.org/2000/svg"
   xmlns:sodipodi="http://sodipodi.sourceforge.net/DTD/sodipodi-0.dtd"
   xmlns:inkscape="http://www.inkscape.org/namespaces/inkscape"
   viewBox="0 0 75.36 628.58"
   version="1.1"
   id="svg30"
   sodipodi:docname="needle.svg"
   inkscape:version="0.92.4 (5da689c313, 2019-01-14)">
  <metadata
     id="metadata36">
    <rdf:RDF>
      <cc:Work
         rdf:about="">
        <dc:format>image/svg+xml</dc:format>
        <dc:type
           rdf:resource="http://purl.org/dc/dcmitype/StillImage" />
      </cc:Work>
    </rdf:RDF>
  </metadata>
  <defs
     id="defs34" />
  <sodipodi:namedview
     pagecolor="#ffffff"
     bordercolor="#666666"
     borderopacity="1"
     objecttolerance="10"
     gridtolerance="10"
     guidetolerance="10"
     inkscape:pageopacity="0"
     inkscape:pageshadow="2"
     inkscape:window-width="1366"
     inkscape:window-height="705"
     id="namedview32"
     showgrid="false"
     inkscape:zoom="4.2477252"
     inkscape:cx="78.80647"
     inkscape:cy="563.42512"
     inkscape:window-x="-8"
     inkscape:window-y="-8"
     inkscape:window-maximized="1"
     inkscape:current-layer="svg30" />
  <title
     id="title2">needle</title>
  <path
     d="M 55.86,313.94 A 18.16,18.16 0 0 1 37.68,332.08 V 628.57 L 74.37,324.72 A 37.56,37.56 0 0 0 37.68,278.59 v 17.21 a 18.16,18.16 0 0 1 18.18,18.14 z"
     id="path4"
     inkscape:connector-curvature="0"
     style="fill:#3a6477" />
  <path
     d="m 0,316.18 a 37.43,37.43 0 0 0 1,8.53 l 36.68,303.87 v 0 -296.5 a 18.14,18.14 0 1 1 0,-36.28 v -17.21 0 A 37.64,37.64 0 0 0 0,316.18 Z"
     id="path6"
     inkscape:connector-curvature="0"
     style="fill:#4c819e" />
  <path
     d="M 19.5,314.64 A 18.17,18.17 0 0 1 37.68,296.49 V 0 L 1,303.86 A 37.56,37.56 0 0 0 37.68,350 V 332.78 A 18.16,18.16 0 0 1 19.5,314.64 Z"
     id="path8"
     inkscape:connector-curvature="0"
     style="fill:#892121" />
  <path
     d="m 75.36,312.39 a 37.5,37.5 0 0 0 -1,-8.53 L 37.68,0 v 0 296.49 a 18.15,18.15 0 1 1 0,36.29 v 17.22 0 a 37.64,37.64 0 0 0 37.68,-37.61 z"
     id="path10"
     inkscape:connector-curvature="0"
     style="fill:#682121" />
</svg>
